<?xml version="1.0" encoding="UTF-8" standalone="no"?>
<!-- Created with Inkscape (http://www.inkscape.org/) -->

<svg
   xmlns:dc="http://purl.org/dc/elements/1.1/"
   xmlns:cc="http://creativecommons.org/ns#"
   xmlns:rdf="http://www.w3.org/1999/02/22-rdf-syntax-ns#"
   xmlns:svg="http://www.w3.org/2000/svg"
   xmlns="http://www.w3.org/2000/svg"
   xmlns:sodipodi="http://sodipodi.sourceforge.net/DTD/sodipodi-0.dtd"
   xmlns:inkscape="http://www.inkscape.org/namespaces/inkscape"
   width="371.70627mm"
   height="168.96562mm"
   viewBox="0 0 1317.0695 598.69707"
   id="svg2"
   version="1.1"
   inkscape:version="0.91 r13725"
   sodipodi:docname="scalataiwan_hurme_geometric_sans_2_semibold_2F_center.svg"
   inkscape:export-filename="/home/pishentsai/Dropbox/scalataiwan_hurme_geometric_sans_2_semibold_2F_right_align.png"
   inkscape:export-xdpi="89.647064"
   inkscape:export-ydpi="89.647064">
  <defs
     id="defs4">
    <path
       d="m -1544.4,261.9 2381,0 0,1049 -2381,0 z"
       id="a"
       inkscape:connector-curvature="0" />
    <path
       d="m -1544.4,261.9 2381,0 0,1049 -2381,0 z"
       id="a-6"
       inkscape:connector-curvature="0" />
  </defs>
  <sodipodi:namedview
     id="base"
     pagecolor="#ffffff"
     bordercolor="#666666"
     borderopacity="1.0"
     inkscape:pageopacity="0.0"
     inkscape:pageshadow="2"
     inkscape:zoom="0.35"
     inkscape:cx="862.41687"
     inkscape:cy="414.33601"
     inkscape:document-units="px"
     inkscape:current-layer="layer1"
     showgrid="false"
     inkscape:window-width="1366"
     inkscape:window-height="744"
     inkscape:window-x="0"
     inkscape:window-y="24"
     inkscape:window-maximized="1"
     fit-margin-top="1"
     fit-margin-left="1"
     fit-margin-right="1"
     fit-margin-bottom="1"
     units="in" />
  <metadata
     id="metadata7">
    <rdf:RDF>
      <cc:Work
         rdf:about="">
        <dc:format>image/svg+xml</dc:format>
        <dc:type
           rdf:resource="http://purl.org/dc/dcmitype/StillImage" />
        <dc:title></dc:title>
      </cc:Work>
    </rdf:RDF>
  </metadata>
  <g
     inkscape:label="Layer 1"
     inkscape:groupmode="layer"
     id="layer1"
     transform="translate(-450.17796,-57.881688)">
    <g
       id="g4198"
       transform="translate(50.118973,0.00863083)">
      <path
         sodipodi:nodetypes="cccccc"
         inkscape:connector-curvature="0"
         id="rect4299"
         d="m 477.82099,239.69591 148.018,-16.99402 c 28.3105,16.79533 40.7281,21.95524 42.6101,30.00056 l -1.4731,6.51194 -111.8477,35.46087 z"
         style="fill:#333333;fill-opacity:1;stroke-width:1;stroke-miterlimit:4;stroke-dasharray:none" />
      <path
         sodipodi:nodetypes="ssssscsscccssss"
         inkscape:connector-curvature="0"
         id="rect4272"
         d="m 564.87269,104.00896 c 12.8068,-10.233276 31.1503,-10.772822 45.4457,-18.796154 11.7295,-6.583176 25.2047,-23.71515 32.5886,-23.796144 7.7106,-0.08458 16.1902,16.203989 26.103,21.627585 9.1101,4.984365 20.8835,3.956979 29.6745,9.484728 7.5062,4.719893 18.2775,19.326605 18.2775,19.326605 0,0 -26.0832,20.60454 -30.5138,35.58994 -2.5046,8.47112 1.321,17.71244 3.5355,26.26397 2.0849,8.05073 7.3236,22.22336 7.3236,22.22336 l -20.2717,15.22843 c -26.583,14.79007 -109.7002,22.49389 -199.1839,28.7132 0,0 13.5616,-30.2558 21.2132,-44.95179 5.6415,-10.83548 11.079,-21.88137 18.1827,-31.81981 8.7401,-12.22779 20.4858,-22.04344 29.7995,-33.84011 6.3849,-8.08705 9.776,-18.82177 17.8256,-25.25381 z"
         style="fill:#ff5959;fill-opacity:1;stroke-width:1;stroke-miterlimit:4;stroke-dasharray:none" />
      <path
         sodipodi:nodetypes="cccccc"
         inkscape:connector-curvature="0"
         id="rect4299-7"
         d="m 411.61269,431.85576 159.8619,-25.53327 c 17.1726,13.13199 53.3701,23.28558 52.0939,32.78531 l -17.283,32.77091 -138.5354,-1.94199 z"
         style="fill:#333333;fill-opacity:1;stroke-width:1;stroke-miterlimit:4;stroke-dasharray:none" />
      <path
         sodipodi:nodetypes="ccsssssccsssssc"
         inkscape:connector-curvature="0"
         id="rect4272-8"
         d="m 422.73709,474.60498 c 174.4536,-17.37936 195.8473,-30.14985 200.8401,-35.53173 0,0 -3.5517,14.86823 -6.3914,21.9346 -5.0394,12.54031 -10.5573,25.1996 -18.7472,35.95047 -8.5361,11.20547 -22.8438,17.25913 -30.9359,28.78935 -9.5658,13.63005 -16.0683,29.43785 -19.5717,45.96194 -3.6321,17.13099 1.3587,35.16034 -0.8839,52.52793 -1.2765,9.88528 -8.0812,28.78935 -8.0812,28.78935 l -21.7183,-4.04061 c 0,0 -4.1786,-36.79232 -12.1218,-54.04316 -4.4538,-9.67265 -11.504,-18.13582 -19.0667,-25.63262 -4.9415,-4.89847 -11.0359,-8.49943 -16.8569,-12.31123 -5.6889,-3.72533 -12.897,-5.39334 -17.6145,-10.29094 -8.9746,-9.31706 -14.454,-23.65606 -18.309,-34.21891 -4.4939,-12.31349 -10.5416,-37.88444 -10.5416,-37.88444 z"
         style="fill:#ff5959;fill-opacity:1;stroke-width:1;stroke-miterlimit:4;stroke-dasharray:none" />
      <path
         sodipodi:nodetypes="ccsssccsssc"
         inkscape:connector-curvature="0"
         id="rect4272-3"
         d="m 456.89099,280.28058 c 128.0686,-6.19967 199.0759,-14.6902 211.5571,-27.5784 0,0 -2.3898,35.4626 -10.5367,48.66534 -7.5974,12.31202 -9.6481,27.39254 -12.3744,41.60072 -2.0012,10.42922 -0.5242,21.37104 -2.8646,31.72942 -1.5412,6.82139 -7.2803,19.67632 -7.2803,19.67632 -49.3396,19.438 -125.7423,31.06527 -223.7921,37.49076 0,0 -8.1796,-24.84812 -7.9946,-37.68946 0.206,-14.29043 4.7942,-28.39888 10.1016,-41.66879 5.882,-14.70671 15.6012,-27.5744 23.7386,-41.16372 5.2442,-8.75786 19.4454,-31.06219 19.4454,-31.06219 z"
         style="fill:#ff5959;fill-opacity:1;stroke-width:1;stroke-miterlimit:4;stroke-dasharray:none" />
    </g>
    <g
       id="g4395"
       transform="translate(94.014494,0)">
      <path
         inkscape:connector-curvature="0"
         id="path4252"
         d="m 797.29195,342.57566 c -27.77081,-5.95419 -53.84981,-23.64473 -64.52707,-43.77155 -2.71956,-5.12644 -4.49998,-9.72646 -3.95646,-10.22227 2.63183,-2.40081 31.96829,-20.52132 32.30046,-19.9513 15.9507,27.37436 38.72352,39.24623 70.87071,36.9461 16.4346,-1.17588 25.91837,-5.88559 33.08707,-16.43126 7.04322,-10.36106 5.6799,-26.74507 -2.98517,-35.87516 -7.21001,-7.59692 -23.95561,-16.4406 -47.72574,-25.20493 -51.4991,-18.98829 -69.50451,-38.20768 -69.72114,-74.4218 -0.13036,-21.78272 6.80723,-37.23706 22.16569,-49.37721 16.34892,-12.92308 30.76471,-17.51931 55.50925,-17.69813 24.60349,-0.17787 42.16655,4.81818 58.14147,16.539 9.06562,6.65144 22.35089,21.48998 20.47236,22.86589 -10.95644,8.02476 -29.23096,20.31146 -30.21012,20.31146 -0.7174,0 -4.65154,-3.25072 -8.7425,-7.2238 -12.93407,-12.56141 -39.7315,-17.78222 -56.1218,-10.9339 -16.4085,6.8559 -22.79246,24.31877 -14.10125,38.57292 4.63032,7.59402 13.16911,12.42838 40.79985,23.09938 32.59617,12.58864 51.58969,23.22975 64.39025,36.07459 14.00283,14.05125 17.94014,24.83075 17.77631,48.6674 -0.19197,27.93559 -14.00655,49.23908 -39.6541,61.15098 -22.01905,10.22665 -50.44179,12.74248 -77.76807,6.88359 z"
         style="fill:#333333;fill-opacity:1" />
      <path
         inkscape:connector-curvature="0"
         id="path4250"
         d="m 1003.3257,343.05271 c -18.45861,-4.01032 -36.27846,-14.18811 -49.96617,-28.53824 -20.65104,-21.65044 -29.54968,-50.73086 -24.55357,-80.23994 3.55015,-20.96859 11.38545,-35.99345 26.88236,-51.5493 16.19787,-16.25947 33.44105,-24.80888 56.94668,-28.23484 28.76,-4.19182 59.2574,4.22641 79.423,21.92314 l 8.3357,7.31522 -8.6272,10.29209 c -16.0741,19.17587 -15.6817,19.01574 -26.4527,10.79401 -12.109,-9.24298 -25.4787,-12.91632 -42.1427,-11.57868 -20.7619,1.66654 -37.12096,12.48554 -46.95179,31.05117 -5.83939,11.02775 -5.47851,40.13402 0.63869,51.51289 17.31683,32.21181 60.7815,40.73629 89.6508,17.58267 7.85,-6.29584 8.1072,-6.34896 12.3238,-2.54482 2.3686,2.13688 8.1889,8.5167 12.9339,14.17736 l 8.6272,10.29208 -8.3357,7.25182 c -23.0338,20.03866 -55.8935,27.62786 -88.7323,20.49337 z"
         style="fill:#333333;fill-opacity:1" />
      <path
         id="path4248"
         d="m 1203.1226,153.74442 c -12.24,-0.0575 -24.5928,1.18046 -32.4023,3.73633 -13.5195,4.42467 -32.1341,16.68111 -39.1504,25.77929 l -4.9258,6.38672 12.9414,10.8125 12.9395,10.81055 7.0527,-6.19336 c 20.6521,-18.13273 52.1033,-22.35128 67.8496,-9.10156 4.6753,3.93399 6.3692,7.17073 6.3692,12.16601 0,12.50038 -10.8202,18.24455 -39.9492,21.21094 -57.0305,5.8078 -80.7266,23.39568 -80.7266,59.91602 0,12.02427 1.0674,17.81416 4.4961,24.3789 8.0624,15.43724 23.6861,26.30715 43.4453,30.22461 27.0556,5.36402 60.4639,-1.59472 75.7715,-15.78125 l 5.3711,-4.97656 3.0469,5.89258 c 6.1493,11.89188 24.6745,17.90428 39.7949,12.91406 l 7.623,-2.51563 0,-16.6582 c 0,-15.86318 -0.2271,-16.65875 -4.7324,-16.68945 -10.939,-0.0745 -10.9609,-0.18616 -12.0879,-57.18164 l -1.0527,-53.16992 -6.2285,-11.2461 c -6.9196,-12.49236 -17.5561,-20.90694 -33.7207,-26.67773 -7.3588,-2.62714 -19.4846,-3.97959 -31.7247,-4.03711 z m 29.8809,99.78125 c 1.9243,0 0.559,28.06421 -1.5664,32.20117 -4.7126,9.17283 -13.4608,16.32261 -23.6934,19.36133 -12.9312,3.84017 -31.7122,3.87764 -40.4336,0.082 -14.0772,-6.12682 -17.5769,-20.46784 -7.4629,-30.58203 6.8693,-6.86894 15.3952,-9.5921 40.3087,-12.86914 9.8297,-1.29296 21.0631,-3.66454 24.9628,-5.27149 3.8994,-1.60697 7.4476,-2.92187 7.8848,-2.92187 z"
         style="fill:#333333;fill-opacity:1"
         inkscape:connector-curvature="0" />
      <path
         inkscape:connector-curvature="0"
         id="path4244"
         d="m 1344.9595,343.64206 c -16.3739,-3.85561 -27.7206,-13.1242 -34.5126,-28.1921 -3.469,-7.69611 -3.8445,-17.73891 -4.4209,-118.2694 l -0.6296,-109.85912 22.181,0 22.181,0 0,103.18751 0,103.18753 6.146,6.14595 c 5.1789,5.17884 7.8258,6.14598 16.8206,6.14598 l 10.6745,0 0,18.67788 c 0,17.59228 -0.2749,18.75155 -4.7308,19.94566 -6.605,1.77009 -24.2264,1.26308 -33.7092,-0.96989 z"
         style="fill:#333333;fill-opacity:1" />
      <path
         id="path4242"
         d="m 1486.1284,153.74442 c -12.24,-0.0575 -24.5929,1.18046 -32.4023,3.73633 -13.5196,4.42467 -32.1341,16.68113 -39.1504,25.77929 l -4.9238,6.38672 12.9394,10.8125 12.9395,10.81055 7.0547,-6.19336 c 20.652,-18.13275 52.1011,-22.35128 67.8476,-9.10156 4.6752,3.93399 6.3711,7.17074 6.3711,12.16601 0,12.50038 -10.8203,18.24455 -39.9492,21.21094 -57.0303,5.80779 -80.7285,23.39568 -80.7285,59.91602 0,12.02427 1.0674,17.81416 4.4961,24.3789 8.0624,15.43724 23.6861,26.30715 43.4453,30.22461 27.0554,5.36402 60.4639,-1.59472 75.7714,-15.78125 l 5.3711,-4.97656 3.0489,5.89258 c 6.1495,11.89188 24.6745,17.90428 39.7949,12.91406 l 7.6211,-2.51563 0,-16.6582 c 0,-15.86318 -0.2251,-16.65875 -4.7305,-16.68945 -10.939,-0.0745 -10.9629,-0.18616 -12.0898,-57.18164 l -1.0508,-53.16992 -6.2285,-11.2461 c -6.9195,-12.49236 -17.5562,-20.90694 -33.7207,-26.67773 -7.3588,-2.62714 -19.4866,-3.97959 -31.7266,-4.03711 z m 29.8809,99.78125 c 1.9242,0 0.5608,28.06423 -1.5645,32.20117 -4.7127,9.17283 -13.4628,16.32261 -23.6953,19.36133 -12.9313,3.84017 -31.7126,3.87764 -40.4336,0.082 -14.0775,-6.12682 -17.5771,-20.46784 -7.4628,-30.58203 6.8689,-6.86894 15.3952,-9.5921 40.3085,-12.86914 9.8298,-1.29296 21.0633,-3.66454 24.9629,-5.27149 3.8994,-1.60697 7.4477,-2.92187 7.8848,-2.92187 z"
         style="fill:#333333;fill-opacity:1"
         inkscape:connector-curvature="0" />
    </g>
    <g
       id="g4385"
       transform="translate(0,24.285711)">
      <path
         inkscape:connector-curvature="0"
         id="path4254"
         d="m 1216.1496,621.45441 c -9.7577,-23.36505 -70.7148,-182.55484 -70.7148,-184.67219 0,-1.85812 5.5069,-2.38258 20.403,-1.94322 l 20.4028,0.60178 18.6319,49.41032 c 10.2477,27.17569 19.3191,50.1117 20.1586,50.96893 0.8393,0.85721 12.7508,-22.12994 26.4699,-51.08256 13.7189,-28.95265 25.6105,-51.88867 26.4256,-50.96893 0.8152,0.91974 12.2593,24.68232 25.4315,52.8057 16.299,34.80049 24.5203,50.23271 25.7379,48.31342 0.984,-1.55104 10.0172,-24.56109 20.0739,-51.13346 l 18.2849,-48.31342 20.6606,-0.60492 c 20.5571,-0.60187 20.6559,-0.58073 19.6344,4.20513 -1.3868,6.49966 -70.8386,185.25361 -72.679,187.06048 -0.8008,0.78632 -13.756,-24.13541 -28.7895,-55.38161 -15.0334,-31.2462 -28.0645,-57.26833 -28.9581,-57.82694 -0.8936,-0.55861 -3.8799,4.02078 -6.6363,10.17642 -2.7565,6.15565 -15.4695,32.45199 -28.2511,58.43629 l -23.2395,47.24418 -3.0467,-7.2954 z"
         style="fill:#333333;fill-opacity:1" />
      <path
         inkscape:connector-curvature="0"
         id="path4238"
         d="m 973.93482,433.74442 c -12.24013,-0.0575 -24.59293,1.18046 -32.40243,3.73633 -13.5195,4.42467 -32.1342,16.68113 -39.1504,25.77929 l -4.9257,6.38672 12.9394,10.8125 12.9414,10.81055 7.0528,-6.19336 c 20.652,-18.13275 52.10333,-22.35128 67.84963,-9.10156 4.67528,3.93399 6.36908,7.17074 6.36908,12.16601 0,12.50038 -10.82008,18.24455 -39.94921,21.21094 -57.0302,5.80779 -80.7266,23.39568 -80.7266,59.91602 0,12.02427 1.0676,17.81416 4.4961,24.3789 8.0626,15.43724 23.686,26.30715 43.4453,30.22461 27.0555,5.36402 60.46403,-1.59472 75.77151,-15.78125 l 5.3711,-4.97656 3.0469,5.89258 c 6.1493,11.89188 24.6746,17.90428 39.7949,12.91406 l 7.6211,-2.51563 0,-16.6582 c 0,-15.86318 -0.2251,-16.65875 -4.7305,-16.68945 -10.939,-0.0744 -10.9628,-0.18616 -12.0898,-57.18164 l -1.0508,-53.16992 -6.2285,-11.2461 c -6.9195,-12.49236 -17.5561,-20.90694 -33.7207,-26.67773 -7.35878,-2.62714 -19.48458,-3.97959 -31.72458,-4.03711 z m 29.87888,99.78125 c 1.9242,0 0.5607,28.06423 -1.5645,32.20117 -4.71268,9.17283 -13.46068,16.32261 -23.69328,19.36133 -12.93123,3.84017 -31.71263,3.87764 -40.43363,0.082 -14.0775,-6.12682 -17.577,-20.46784 -7.4629,-30.58203 6.8689,-6.86894 15.3953,-9.5921 40.30863,-12.86914 9.8298,-1.29296 21.0612,-3.66454 24.9609,-5.27149 3.8995,-1.60697 7.44758,-2.92187 7.88478,-2.92187 z"
         style="fill:#333333;fill-opacity:1" />
      <path
         inkscape:connector-curvature="0"
         id="path4234"
         d="m 1486.1284,433.74442 c -12.24,-0.0575 -24.5928,1.18046 -32.4023,3.73633 -13.5196,4.42467 -32.1341,16.68113 -39.1504,25.77929 l -4.9239,6.38672 12.9395,10.8125 12.9394,10.81055 7.0547,-6.19336 c 20.652,-18.13275 52.1012,-22.35128 67.8477,-9.10156 4.6752,3.93399 6.3711,7.17074 6.3711,12.16601 0,12.50038 -10.8203,18.24455 -39.9492,21.21094 -57.0303,5.80779 -80.7286,23.39568 -80.7286,59.91602 0,12.02427 1.0674,17.81416 4.4961,24.3789 8.0624,15.43724 23.688,26.30715 43.4473,30.22461 27.0554,5.36402 60.462,-1.59472 75.7695,-15.78125 l 5.3711,-4.97656 3.0489,5.89258 c 6.1495,11.89188 24.6745,17.90428 39.7949,12.91406 l 7.6211,-2.51563 0,-16.6582 c 0,-15.86318 -0.225,-16.65875 -4.7305,-16.68945 -10.939,-0.0744 -10.9628,-0.18616 -12.0898,-57.18164 l -1.0508,-53.16992 -6.2285,-11.2461 c -6.9195,-12.49236 -17.5563,-20.90694 -33.7207,-26.67773 -7.3589,-2.62714 -19.4866,-3.97959 -31.7266,-4.03711 z m 29.8809,99.78125 c 1.9243,0 0.5608,28.06423 -1.5645,32.20117 -4.7127,9.17283 -13.4627,16.32261 -23.6953,19.36133 -12.9312,3.84017 -31.7107,3.87764 -40.4317,0.082 -14.0775,-6.12682 -17.5791,-20.46784 -7.4648,-30.58203 6.8688,-6.86894 15.3953,-9.5921 40.3086,-12.86914 9.8298,-1.29296 21.0633,-3.66454 24.9629,-5.27149 3.8994,-1.60697 7.4477,-2.92187 7.8848,-2.92187 z"
         style="fill:#333333;fill-opacity:1" />
      <path
         inkscape:connector-curvature="0"
         id="path4230"
         d="m 798.09553,513.74326 0,-107.23092 -34.6923,0 -34.6925,0 0,-19.97439 0,-19.97438 92.513,0 92.513,0 0,19.97438 0,19.97439 -34.6924,0 -34.6923,0 0,107.23092 0,107.23092 -23.1283,0 -23.1282,0 0,-107.23092 z"
         style="fill:#333333;fill-opacity:1" />
      <path
         inkscape:connector-curvature="0"
         id="path4226"
         d="m 1593.0871,529.26865 0,-92.51295 22.077,0 22.0768,0 0,12.56843 0,12.56841 8.4587,-9.1764 c 12.1039,-13.13106 26.3216,-18.83869 47.2594,-18.97204 31.9885,-0.20373 53.6878,13.27432 64.2879,39.93081 4.7945,12.05651 4.9932,14.8503 5.7122,80.2989 l 0.7452,67.80779 -22.2315,0 -22.2317,0 0,-58.55814 c 0,-38.11857 -0.8337,-61.05278 -2.3885,-65.70521 -3.0555,-9.14228 -11.5131,-18.43003 -20.1464,-22.12402 -14.7594,-6.31506 -37.6913,-1.57101 -48.3263,9.99748 -10.3911,11.30299 -11.139,16.57364 -11.139,78.50176 l 0,57.88813 -22.0768,0 -22.077,0 0,-92.51295 z"
         style="fill:#333333;fill-opacity:1" />
      <g
         transform="translate(-734.13881,-22.857143)"
         id="g4358">
        <path
           inkscape:connector-curvature="0"
           style="fill:#333333;fill-opacity:1"
           d="m 1816.6828,549.11191 0,-92.51295 22.0769,0 22.077,0 0,92.51295 0,92.51295 -22.077,0 -22.0769,0 0,-92.51295 z"
           id="path4228" />
        <path
           inkscape:connector-curvature="0"
           style="fill:#333333;fill-opacity:1"
           d="m 1827.7627,439.46736 c -3.7354,-1.67907 -8.6992,-6.18137 -11.0304,-10.0051 -15.5999,-25.58646 18.8545,-52.50015 40.0611,-31.29352 20.0559,20.05573 -3.0771,52.96431 -29.0307,41.29862 z"
           id="path4164" />
      </g>
    </g>
  </g>
</svg>
